<svg id="Fill_Outline" height="512" viewBox="0 0 64 64" width="512" xmlns="http://www.w3.org/2000/svg" data-name="Fill Outline"><path d="m37.91 29.91h4v20h-4z" fill="#fcbc04" transform="matrix(.707 -.707 .707 .707 -16.53 39.91)"/><path d="m42.74 43.56-2.9-2.89a2 2 0 0 1 -.24-2.53c.19-.28.36-.56.53-.84l-5.88-5.88-2.83 2.83 14.14 14.14 2.83-2.83-1.19-1.19a4 4 0 0 1 -4.46-.81z" fill="#e59730"/><circle cx="23" cy="23" fill="#f9e109" r="20"/><path d="m16.86 27.14a20 20 0 0 1 -4.64-21 20 20 0 1 0 29.56 23.7 20 20 0 0 1 -24.92-2.7z" fill="#fcbc04"/><circle cx="23" cy="23" fill="#aae1f9" r="16"/><path d="m34.31 34.31a16 16 0 0 1 -22.62-22.62z" fill="#57b7eb"/><path d="m34.31 11.69a16 16 0 0 0 -22.62 0 15 15 0 0 0 -1.39 1.61 16 16 0 0 1 22.4 22.4 15 15 0 0 0 1.61-1.39 16 16 0 0 0 0-22.62z" fill="#57b7eb"/><g fill="#c4f236"><rect height="17" rx="2" transform="matrix(.707 -.707 .707 .707 -21.95 52.99)" width="8" x="48.99" y="44.49"/><path d="m29 19h5a0 0 0 0 1 0 0 8 8 0 0 1 -8 8h-2a0 0 0 0 1 0 0v-3a5 5 0 0 1 5-5z"/><path d="m11 16h2a8 8 0 0 1 8 8 0 0 0 0 1 0 0h-5a5 5 0 0 1 -5-5v-3a0 0 0 0 1 0 0z" transform="matrix(-1 0 0 -1 32 40)"/><path d="m49 9h12v6h-12z"/><path d="m27 38.48v-7.48h-8v7.48a16.17 16.17 0 0 0 8 0z"/><path d="m27 47v-4.41a20 20 0 0 1 -8 0v4.41l-4.83 9.66a3 3 0 0 0 2.68 4.34h12.3a3 3 0 0 0 2.68-4.34z"/></g><path d="m21.71 49.52a2.31 2.31 0 0 0 .29-1.12v-5.46a20.13 20.13 0 0 1 -3-.35v4.41l-4.83 9.66a3 3 0 0 0 2.68 4.34h12.3a3 3 0 0 0 3-3h-5.45a5.71 5.71 0 0 1 -4.99-8.48z" fill="#a1d51c"/><path d="m22 31h-3v7.48a16.14 16.14 0 0 0 3 .52v-7.88s0-.12 0-.12z" fill="#a1d51c"/><path d="m30 53-.5.13a8.2 8.2 0 0 1 -6.5-1.13 8.15 8.15 0 0 0 -5.88-1.25l-3 5.91a3 3 0 0 0 2.73 4.34h12.3a3 3 0 0 0 2.68-4.34z" fill="#f89c8d"/><path d="m30 25h-1a3 3 0 0 1 -3-3v-1a3.87 3.87 0 0 1 .18-1.13 5 5 0 0 0 -2.18 4.13v3h2a7.94 7.94 0 0 0 5.49-2.2 5.58 5.58 0 0 1 -1.49.2z" fill="#a1d51c"/><path d="m20 22a8 8 0 0 1 -7.74-6h-1.26a8 8 0 0 0 8 8h2v-2z" fill="#a1d51c"/><path d="m26.7 58a5.72 5.72 0 0 1 -5.58-6.92 8.34 8.34 0 0 0 -4-.33l-3 5.91a3 3 0 0 0 2.73 4.34h12.3a3 3 0 0 0 3-3z" fill="#f8664f"/><path d="m59.77 54.11a6 6 0 0 1 -7.84-.52l-5.78-5.78-.59.58a2 2 0 0 0 0 2.83l9.2 9.19a2 2 0 0 0 2.83 0l2.82-2.82a2 2 0 0 0 0-2.83z" fill="#a1d51c"/><path d="m51.93 44.86a3 3 0 0 0 -3.41-.58l-8.72-8.72a21 21 0 0 0 1.66-22.56h3.54a1 1 0 0 0 0-2h-4.79a20.88 20.88 0 0 0 -30.5-4.26 1 1 0 0 0 1.29 1.55 18.93 18.93 0 0 1 25.44 1.27q.69.7 1.29 1.44h-8.73a1 1 0 0 0 -1 1v3a1 1 0 0 0 2 0v-2h9.14a19 19 0 1 1 -30.85-2 1 1 0 0 0 -1.55-1.29 21 21 0 0 0 15.26 34.23v6.4a8.84 8.84 0 0 0 -3.21-.69l1.1-2.2a1 1 0 0 0 -1.78-.9l-1.88 3.76-3 5.9a4 4 0 0 0 3.62 5.79h12.3a4 4 0 0 0 3.57-5.79l-1.83-3.66-2.89-5.79v-3.39a20.87 20.87 0 0 0 9.85-5.52c.24-.24.45-.5.67-.74l8.48 8.45-1.44 1.44-6.37-6.37a1 1 0 1 0 -1.41 1.37l6.5 6.5a3 3 0 0 0 .58 3.41l9.19 9.19a3 3 0 0 0 4.24 0l2.83-2.83a3 3 0 0 0 0-4.24zm-21.08 14.19a2 2 0 0 1 -1.7 1h-12.3a2 2 0 0 1 -1.78-2.89l2.71-5.44a7.14 7.14 0 0 1 4.67 1.16 9.15 9.15 0 0 0 7 1.33l1.47 3a2 2 0 0 1 -.07 1.84zm-4.74-11.6 2.42 4.85a7.17 7.17 0 0 1 -4.53-.87v-7.49a19.06 19.06 0 0 0 2-.19v3.25a1 1 0 0 0 .11.45zm33.6 9.43-2.83 2.83a1 1 0 0 1 -1.42 0l-9.19-9.2a1 1 0 0 1 -.29-.7 1 1 0 0 1 .29-.71l2.83-2.83a1 1 0 0 1 1.41 0l9.2 9.19a1 1 0 0 1 0 1.42z" fill="#2d72bc"/><path d="m18 31v6.13a15 15 0 1 1 10.18-28.19 1 1 0 0 0 .7-1.88 17.07 17.07 0 0 0 -17.88 3.94 17 17 0 0 0 12 29 17 17 0 0 0 15.27-24.44 1 1 0 0 0 -1.8.88 15 15 0 0 1 -12.47 21.56v-6h2v2.48a1 1 0 0 0 2 0v-3.48a1 1 0 0 0 -1-1h-2.92a7.27 7.27 0 0 1 .62-2h1.3a9 9 0 0 0 9-9 1 1 0 0 0 -2 0 7 7 0 0 1 -6.88 7 6.91 6.91 0 0 1 3.13-1.77 1 1 0 1 0 -.5-1.94 9.09 9.09 0 0 0 -3.75 2v-.29a4 4 0 0 1 4-4h1a1 1 0 0 0 0-2h-1a6 6 0 0 0 -6 6v.9a8.72 8.72 0 0 0 -1-1.55v-2.35a6 6 0 0 0 -6-6h-5a1 1 0 0 0 -1 1 9 9 0 0 0 9 9h1.72a7 7 0 0 1 1.28 4v1h-3a1 1 0 0 0 -1 1zm-5.93-14h3.93a4 4 0 0 1 4 4v.5a8.84 8.84 0 0 0 -2.72-1.23 1 1 0 0 0 -.51 1.93 7.06 7.06 0 0 1 1.8.78 7 7 0 0 1 -6.5-5.98zm9.93 15v6a14.57 14.57 0 0 1 -2-.25v-5.75z" fill="#2d72bc"/><path d="m61 12a1 1 0 0 0 -1 1v1h-10v-4h11a1 1 0 0 0 0-2h-12a1 1 0 0 0 -1 1v6a1 1 0 0 0 1 1h12a1 1 0 0 0 1-1v-2a1 1 0 0 0 -1-1z" fill="#2d72bc"/><path d="m49 20h7a1 1 0 0 0 0-2h-7a1 1 0 0 0 0 2z" fill="#2d72bc"/><path d="m49 25h5a1 1 0 0 0 0-2h-5a1 1 0 0 0 0 2z" fill="#2d72bc"/></svg>